<svg height='300px' width='300px'  fill="#000000" xmlns="http://www.w3.org/2000/svg" viewBox="0 0 100 100" x="0px" y="0px"><title>icn_halloween_witchBroom</title><path d="M86.41,73c2.06.91,5.87-1,5.87-1A11.76,11.76,0,0,1,86,68.79c-2.73-3-6.67-5-11.51-3.64a9.44,9.44,0,0,0-2.9,1.92.72.72,0,0,1-1.08-.22s-.42-1.37-.81-1.6-1.29,0-1.29,0l-.54,1.85-2.56-.73c6.45-4.61,10.8-8.87,10.78-9.82-11.88-.14-15.17-4.67-16.69-8.72-2-5.3-10.95-14.71-11.29-15.07A43.21,43.21,0,0,0,57.6,29c-4.49.17-9.09.87-12.75-2.43,1.74-1.33,4.56-.84,5.19-3.91-1,0-1.9,0-2.76,0s-2.92.17-2.92.17l.08-6.92s6.82-.95,6.75-1.33c-3.68-.55-8.31-2.48-12-2.82a4.06,4.06,0,0,0-3.12,1.29c-1.26,1.63-5.78,10-5.78,10s-4.64-.36-5.41-.28c.8,4.11,4.61,3.2,7,4.54l-2.41,4.14a.35.35,0,0,0,.33.53c.91-.05,3.87-.14,3.87-.14s-1.15,3.38.09,3.5c.33.46,3.63-.74,4.37-.83-1,8-7,13.3-12.35,18.16l1.93,1.07a14.12,14.12,0,0,1-1.23,1.8c-2.3-.62-4.11-1.1-5.17-1.35-3.15-.75-2.95-1.45-3.39.4-.33,1.39-.76,1.55,2.58,2.15.89.17,2.43.53,4.41,1-.54,1-.59,1.94.63,2.54a3.12,3.12,0,0,0,4.3-1.24L36.65,61a13.35,13.35,0,0,0,.07,2c.82,4.53,1.48,9.09,2.22,13.8,1.8-.11,6.18-.66,6.18-.66s1.46,2.39,2.41,3.71c.36.51-.3,2-.85,2.85-.8,1.19-2,2.1-2.87,3.24a2.06,2.06,0,0,0-.37,1.74,1.79,1.79,0,0,0,1.6.56c3.23-.81,7-3.55,9.71-5.38,1.55-1,.68-1.4-.69-2.85s-2.38-3.15-3.73-4.78A91,91,0,0,0,62.5,68.35l4.62,1.35-.71,2.44a2.07,2.07,0,0,0,1,.69c.49.09,1-.54,1.5-.81.74-.43.93-.67,1.23.27,1.68,4.2,4.62,4.89,6.6,6.55,3.28,2.76,4,6.93,3.44,9,3.51-3,2.3-8.51,1.22-9.54,2.91.17,4.35,8.62,4.73,10,1.14-1.84.28-7.84-.23-9.6,1.51.55,2.64,4.34,2.64,4.34a29.07,29.07,0,0,0,0-4.14C88.05,75.47,87.34,74.2,86.41,73ZM31.59,55.07l2.63.81S39,51,40.9,49.63c.63-.46,1.07-2.9,1.46-2.79,0,1.1.26,5.23-.32,5.76a20.36,20.36,0,0,0-5,5.84l-6.24-1.73A17.2,17.2,0,0,1,31.59,55.07Z"></path></svg>