<?xml version="1.0" encoding="UTF-8" standalone="no"?>
<svg
   xmlns:dc="http://purl.org/dc/elements/1.1/"
   xmlns:cc="http://creativecommons.org/ns#"
   xmlns:rdf="http://www.w3.org/1999/02/22-rdf-syntax-ns#"
   xmlns:svg="http://www.w3.org/2000/svg"
   xmlns="http://www.w3.org/2000/svg"
   version="1.1"
   id="Layer_1"
   x="0px"
   y="0px"
   viewBox="0 0 511.999 511.999"
   style="enable-background:new 0 0 511.999 511.999;"
   xml:space="preserve"><metadata
   id="metadata73"><rdf:RDF><cc:Work
       rdf:about=""><dc:format>image/svg+xml</dc:format><dc:type
         rdf:resource="http://purl.org/dc/dcmitype/StillImage" /><dc:title></dc:title></cc:Work></rdf:RDF></metadata><defs
   id="defs71" />
<path
   d="m 424.464,226.038 h -31.289 c -4.637,0 -8.394,3.758 -8.394,8.394 v 17.485 H 370.51 v -17.485 c 0,-4.636 -3.757,-8.394 -8.394,-8.394 h -34.743 v -17.351 h 34.743 c 4.637,0 8.394,-3.758 8.394,-8.394 V 66.121 c 0,-20.285 -16.502,-36.787 -36.787,-36.787 H 264.394 V 8.394 C 264.394,3.758 260.637,0 256,0 c -4.637,0 -8.394,3.758 -8.394,8.394 v 20.939 h -69.33 c -20.285,0 -36.787,16.503 -36.787,36.787 v 134.173 c 0,4.636 3.757,8.394 8.394,8.394 h 34.744 v 17.351 h -34.744 c -4.637,0 -8.394,3.758 -8.394,8.394 v 17.485 h -14.271 v -17.485 c 0,-4.636 -3.757,-8.394 -8.394,-8.394 h -31.29 c -4.637,0 -8.394,3.758 -8.394,8.394 v 169.096 c 0,4.636 3.757,8.394 8.394,8.394 h 31.289 c 4.637,0 8.394,-3.758 8.394,-8.394 V 303.215 h 14.271 v 68.203 c 0,4.636 3.757,8.394 8.394,8.394 h 14.9 v 75.713 h -10.586 c -4.637,0 -8.394,3.758 -8.394,8.394 v 39.686 c 0,4.636 3.757,8.394 8.394,8.394 h 70.744 c 4.637,0 8.394,-3.758 8.394,-8.394 v -39.686 c 0,-4.636 -3.757,-8.394 -8.394,-8.394 h -10.585 v -75.713 h 83.289 v 75.713 h -10.586 c -4.637,0 -8.394,3.758 -8.394,8.394 v 39.686 c 0,4.636 3.757,8.394 8.394,8.394 h 70.744 c 4.637,0 8.394,-3.758 8.394,-8.394 v -39.686 c 0,-4.636 -3.757,-8.394 -8.394,-8.394 h -10.585 v -75.713 h 14.9 c 4.637,0 8.394,-3.758 8.394,-8.394 v -68.203 h 14.271 v 100.312 c 0,4.636 3.757,8.394 8.394,8.394 h 31.289 c 4.637,0 8.394,-3.758 8.394,-8.394 V 234.431 c -0.002,-4.635 -3.759,-8.393 -8.395,-8.393 z M 110.43,395.134 H 95.929 V 242.826 h 14.501 z m 31.059,-108.706 h -14.271 v -17.723 h 14.271 z M 158.276,191.9 V 66.121 c 0,-11.028 8.972,-20 20,-20 h 155.447 c 11.028,0 20,8.972 20,20 V 191.9 Z m 152.31,16.786 v 17.351 H 201.414 v -17.351 z m -94.039,263.628 v 22.898 H 162.59 v -22.898 z m -34.976,-16.788 v -75.713 h 15.998 v 75.713 z m 167.838,16.788 v 22.898 h -53.957 v -22.898 z m -34.976,-16.788 v -75.713 h 15.998 v 75.713 0 z m 39.29,-92.502 H 158.276 V 242.826 h 195.446 v 120.198 z m 31.058,-76.596 H 370.51 v -17.723 h 14.271 z M 416.07,395.134 H 401.569 V 242.826 h 14.501 z"
   id="path2" />
<path
   d="m 204.236,84.744 c -20.803,0 -37.727,16.924 -37.727,37.726 0,20.802 16.924,37.726 37.727,37.726 20.802,0.001 37.726,-16.923 37.726,-37.726 0.001,-20.802 -16.923,-37.726 -37.726,-37.726 z m 0,58.665 c -11.545,0 -20.94,-9.392 -20.94,-20.939 0,-11.545 9.394,-20.939 20.94,-20.939 11.545,0 20.939,9.393 20.939,20.939 0,11.546 -9.393,20.939 -20.939,20.939 z"
   id="path8" />
<path
   d="m 307.765,84.744 c -20.803,0 -37.727,16.924 -37.727,37.726 0,20.802 16.924,37.727 37.727,37.727 20.802,0 37.726,-16.924 37.726,-37.726 0,-20.802 -16.924,-37.727 -37.726,-37.727 z m 0,58.665 c -11.545,0 -20.94,-9.393 -20.94,-20.939 0,-11.545 9.393,-20.939 20.94,-20.939 11.545,0 20.939,9.393 20.939,20.939 -0.001,11.546 -9.394,20.939 -20.939,20.939 z"
   id="path14" />
<path
   d="m 256.001,270.9 c -30.317,0 -54.982,24.664 -54.982,54.982 0,4.636 3.757,8.394 8.394,8.394 h 93.176 c 4.637,0 8.394,-3.758 8.394,-8.394 C 310.982,295.565 286.318,270.9 256.001,270.9 Z m -37.266,46.588 c 3.835,-17.036 19.089,-29.8 37.265,-29.8 18.177,0 33.43,12.764 37.265,29.8 z"
   id="path20" />
<circle
   cx="326.74399"
   cy="267.215"
   r="8.3940001"
   id="circle26" />
<circle
   cx="185.257"
   cy="267.215"
   r="8.3940001"
   id="circle32" />















</svg>
