<?xml version="1.0" encoding="UTF-8" standalone="no"?>
<svg
   xmlns:dc="http://purl.org/dc/elements/1.1/"
   xmlns:cc="http://creativecommons.org/ns#"
   xmlns:rdf="http://www.w3.org/1999/02/22-rdf-syntax-ns#"
   xmlns:svg="http://www.w3.org/2000/svg"
   xmlns="http://www.w3.org/2000/svg"
   xmlns:sodipodi="http://sodipodi.sourceforge.net/DTD/sodipodi-0.dtd"
   xmlns:inkscape="http://www.inkscape.org/namespaces/inkscape"
   version="1.1"
   id="Layer_1"
   x="0px"
   y="0px"
   viewBox="0 0 512.00001 512.00001"
   xml:space="preserve"
   width="512"
   height="512"
   inkscape:version="1.0.1 (3bc2e813f5, 2020-09-07)"
   inkscape:export-xdpi="96"
   inkscape:export-ydpi="96"><metadata
   id="metadata73"><rdf:RDF><cc:Work
       rdf:about=""><dc:format>image/svg+xml</dc:format><dc:type
         rdf:resource="http://purl.org/dc/dcmitype/StillImage" /><dc:title></dc:title></cc:Work></rdf:RDF></metadata><defs
   id="defs71">
	

	

	

	

	

		
	
		
	
		
	
		
	
		
	














</defs><sodipodi:namedview
   pagecolor="#ffffff"
   bordercolor="#666666"
   borderopacity="1"
   objecttolerance="10"
   gridtolerance="10"
   guidetolerance="10"
   inkscape:pageopacity="0"
   inkscape:pageshadow="2"
   inkscape:window-width="640"
   inkscape:window-height="480"
   id="namedview69"
   showgrid="false"
   inkscape:current-layer="Layer_1" />





















<circle
   style="fill:#30ba78;stroke-width:3.77953"
   id="path898"
   cx="256"
   cy="256"
   r="256" /><g
   id="g985"
   transform="translate(-9.776255)"><rect
     style="fill:#efefef;stroke-width:3.77953"
     id="rect933"
     width="178.1321"
     height="140.04047"
     x="176.35545"
     y="64.789642" /><rect
     style="fill:#fe7c3f;stroke-width:3.77953"
     id="rect929"
     width="41.322132"
     height="45.253212"
     x="200.27318"
     y="109.24487" /><rect
     style="fill:#fe7c3f;stroke-width:3.77953"
     id="rect931"
     width="38.977383"
     height="43.893959"
     x="292.92081"
     y="110.86896" /><rect
     style="fill:#dedfe0;stroke-width:3.77953"
     id="rect935"
     width="187.4427"
     height="122.45887"
     x="172.06944"
     y="232.00427" /><rect
     style="fill:#bbbdd4;stroke-width:3.77953"
     id="rect937"
     width="32.144676"
     height="153.4774"
     x="114.54819"
     y="230.03227" /><rect
     style="fill:#757aa7;stroke-width:3.77953"
     id="rect939"
     width="64.585854"
     height="38.380131"
     x="173.94746"
     y="434.16711" /><rect
     style="fill:#757aa7;stroke-width:3.77953"
     id="rect941"
     width="68.935318"
     height="41.34053"
     x="289.56445"
     y="431.54846" /><rect
     style="fill:#bbbdd4;stroke-width:3.77953"
     id="rect943"
     width="35.239582"
     height="148.20659"
     x="382.22342"
     y="231.36922" /><rect
     style="fill:#bbbdd4;stroke-width:3.77953"
     id="rect945"
     width="19.616676"
     height="32.709698"
     x="361.00589"
     y="253.08078" /><rect
     style="fill:#bbbdd4;stroke-width:3.77953"
     id="rect947"
     width="20.948017"
     height="27.419516"
     x="150.08972"
     y="253.77597" /><rect
     style="fill:#bbbdd4;stroke-width:3.77953"
     id="rect949"
     width="113.29973"
     height="18.815922"
     x="209.70773"
     y="207.69157" /><rect
     style="fill:#bbbdd4;stroke-width:3.77953"
     id="rect951"
     width="33.772942"
     height="73.828514"
     x="190.59737"
     y="357.96329" /><rect
     style="fill:#bbbdd4;stroke-width:3.77953"
     id="rect953"
     width="31.273148"
     height="70.375458"
     x="308.25406"
     y="357.4057" /><path
     id="path2"
     d="m 265.77625,25 c -4.0936,0 -7.41082,3.3181 -7.41082,7.410826 v 18.483966 h -61.2057 c -17.90792,0 -32.47624,14.569191 -32.47624,32.476235 V 201.82181 c 0,4.09274 3.31722,7.41083 7.41083,7.41083 h 30.67267 v 15.31649 h -30.67267 c -4.09361,0 -7.41083,3.3181 -7.41083,7.41083 v 15.43722 h -12.59736 v -15.43722 c 0,-4.09273 -3.31723,-7.41083 -7.41082,-7.41083 H 117.0511 c -4.09362,0 -7.4091,3.3181 -7.4091,7.41083 v 149.28036 c 0,4.09275 3.31548,7.41085 7.4091,7.41085 h 27.62248 c 4.09362,0 7.41083,-3.3181 7.41083,-7.41085 v -88.55747 h 12.59908 v 60.21081 c 0,4.09274 3.31722,7.41083 7.41083,7.41083 h 13.15257 v 66.84054 h -9.34543 c -4.0936,0 -7.4091,3.3181 -7.4091,7.41083 v 35.03503 c 0,4.09272 3.3155,7.4091 7.4091,7.4091 h 62.45405 c 4.09362,0 7.41082,-3.31638 7.41082,-7.4091 v -35.03503 c 0,-4.09273 -3.3172,-7.41083 -7.41082,-7.41083 h -9.3437 v -66.84054 h 73.52889 v 66.84054 h -9.34544 c -4.09361,0 -7.4108,3.3181 -7.4108,7.41083 v 35.03503 c 0,4.09272 3.31719,7.4091 7.4108,7.4091 h 62.45405 c 4.09362,0 7.40913,-3.31638 7.40913,-7.4091 v -35.03503 c 0,-4.09273 -3.31551,-7.41083 -7.40913,-7.41083 h -9.34543 v -66.84054 h 13.15431 c 4.09361,0 7.41083,-3.31809 7.41083,-7.41083 v -60.21081 h 12.59735 v 88.55747 c 0,4.09275 3.31723,7.41083 7.41083,7.41085 h 27.62248 c 4.09363,0 7.41083,-3.3181 7.41083,-7.41085 V 231.95996 c -0.002,-4.09185 -3.31809,-7.41083 -7.41083,-7.41083 H 386.8772 c -4.0936,0 -7.41083,3.3181 -7.41083,7.41083 v 15.43722 h -12.59908 v -15.43722 c 0,-4.09273 -3.31722,-7.41083 -7.41083,-7.41083 h -30.67094 v -15.31649 h 30.67094 c 4.09361,0 7.41083,-3.31809 7.41083,-7.41083 V 83.372764 c 0,-17.907927 -14.56833,-32.476252 -32.47625,-32.476252 H 273.18707 V 32.410826 C 273.18707,28.3181 269.86987,25 265.77625,25 Z m -68.61652,40.71645 h 137.23131 c 9.73571,0 17.65632,7.920606 17.65632,17.656314 V 194.41271 H 179.50343 V 83.372764 c 0,-9.735708 7.92063,-17.656324 17.6563,-17.656314 z m 22.91874,34.09701 c -18.36522,0 -33.3056,14.94127 -33.3056,33.30561 0,18.36433 14.94038,33.30389 33.3056,33.30389 18.36433,8.8e-4 33.3056,-14.93866 33.3056,-33.30389 8.8e-4,-18.36434 -14.94039,-33.30561 -33.3056,-33.30561 z m 91.39729,0 c -18.3652,0 -33.30732,14.94127 -33.30732,33.30561 0,18.36433 14.94212,33.30562 33.30732,33.30562 18.36435,0 33.30389,-14.94129 33.30389,-33.30562 0,-18.36434 -14.93954,-33.30561 -33.30389,-33.30561 z m -91.39729,14.81993 c 10.19212,0 18.48567,8.29271 18.48567,18.48568 0,10.193 -8.29267,18.48396 -18.48567,18.48396 -10.19211,0 -18.48568,-8.29008 -18.48568,-18.48396 0,-10.19209 8.29268,-18.48568 18.48568,-18.48568 z m 91.39729,0 c 10.19213,0 18.48396,8.29271 18.48396,18.48568 -8.7e-4,10.193 -8.29184,18.48396 -18.48396,18.48396 -10.19211,0 -18.48738,-8.29096 -18.48738,-18.48396 0,-10.19209 8.29351,-18.48568 18.48738,-18.48568 z m -93.88884,94.59752 h 96.37868 v 15.31822 h -96.37868 z m -93.12327,30.13988 h 12.80083 v 134.46045 h -12.80083 z m 55.03978,0 H 352.04736 V 345.48284 H 179.50343 Z m 214.78287,0 h 12.80255 V 373.83124 H 394.2863 Z m -190.98822,14.11987 a 7.4103562,7.4103562 0 0 0 -7.38498,7.41083 7.4103562,7.4103562 0 0 0 7.41084,7.41084 7.4103562,7.4103562 0 0 0 7.40909,-7.41084 7.4103562,7.4103562 0 0 0 -7.40909,-7.41083 7.4103562,7.4103562 0 0 0 -0.0258,0 z m 124.90637,0 a 7.4103562,7.4103562 0 0 0 -7.38496,7.41083 7.4103562,7.4103562 0 0 0 7.41083,7.41084 7.4103562,7.4103562 0 0 0 7.4108,-7.41084 7.4103562,7.4103562 0 0 0 -7.4108,-7.41083 7.4103562,7.4103562 0 0 0 -0.0258,0 z m -176.11832,8.72643 h 12.59736 v 15.64585 h -12.59736 z m 214.78116,0 h 12.59908 v 15.64585 h -12.59908 z m -166.79874,98.0874 h 14.12332 v 66.84054 h -14.12332 z m 117.2938,0 h 14.12335 v 66.84054 h -14.12335 z m -134.05006,81.66218 h 47.63413 v 20.21511 h -47.63413 z m 117.29209,0 h 47.63411 v 20.21511 h -47.63411 z"
     style="fill:#0c322c;stroke-width:0.999998" /></g></svg>
