<?xml version="1.0" encoding="UTF-8" standalone="no"?>
<!-- Created with Inkscape (http://www.inkscape.org/) -->

<svg
   xmlns:dc="http://purl.org/dc/elements/1.1/"
   xmlns:cc="http://creativecommons.org/ns#"
   xmlns:rdf="http://www.w3.org/1999/02/22-rdf-syntax-ns#"
   xmlns:svg="http://www.w3.org/2000/svg"
   xmlns="http://www.w3.org/2000/svg"
   xmlns:sodipodi="http://sodipodi.sourceforge.net/DTD/sodipodi-0.dtd"
   xmlns:inkscape="http://www.inkscape.org/namespaces/inkscape"
   width="256"
   height="256"
   viewBox="0 0 67.733332 67.733335"
   version="1.1"
   id="svg1114"
   inkscape:version="0.92.2 5c3e80d, 2017-08-06"
   inkscape:export-xdpi="204.8"
   inkscape:export-ydpi="204.8">
  <defs
     id="defs1108" />
  <sodipodi:namedview
     id="base"
     pagecolor="#ffffff"
     bordercolor="#666666"
     borderopacity="1.0"
     inkscape:pageopacity="0.0"
     inkscape:pageshadow="2"
     inkscape:zoom="0.70710678"
     inkscape:cx="128.72934"
     inkscape:cy="127.04138"
     inkscape:document-units="mm"
     inkscape:current-layer="layer1"
     showgrid="false"
     units="px"
     inkscape:window-width="1842"
     inkscape:window-height="1016"
     inkscape:window-x="78"
     inkscape:window-y="27"
     inkscape:window-maximized="1">
    <inkscape:grid
       type="xygrid"
       id="grid869" />
  </sodipodi:namedview>
  <metadata
     id="metadata1111">
    <rdf:RDF>
      <cc:Work
         rdf:about="">
        <dc:format>image/svg+xml</dc:format>
        <dc:type
           rdf:resource="http://purl.org/dc/dcmitype/StillImage" />
        <dc:title></dc:title>
      </cc:Work>
    </rdf:RDF>
  </metadata>
  <g
     inkscape:label="Layer 1"
     inkscape:groupmode="layer"
     id="layer1"
     transform="translate(0,-229.26665)">
    <path
       inkscape:connector-curvature="0"
       id="path29052-3"
       style="display:inline;fill:#ff6a52;fill-opacity:1;fill-rule:nonzero;stroke:none;stroke-width:1.76388919"
       d="m 65.61667,263.14003 c 0,17.52808 -14.210155,31.74344 -31.746704,31.74344 -17.53655,0 -31.7532992,-14.21536 -31.7532992,-31.74344 0,-17.54136 14.2167492,-31.75664 31.7532992,-31.75664 17.536549,0 31.746704,14.21528 31.746704,31.75664" />
    <path
       style="fill:#000000;stroke-width:0.79374987"
       inkscape:connector-curvature="0"
       d="M 6.689095,281.10158 C 5.3632889,281.68727 2.9111797,280.458 2.9111797,280.458 a 7.5687064,7.5687064 0 0 0 4.0417932,-2.06593 c 1.7570234,-1.9308 4.2927931,-3.218 7.4078031,-2.34273 a 6.0755604,6.0755604 0 0 1 1.866439,1.23571 0.46339019,0.46339019 0 0 0 0.695084,-0.1416 c 0,0 0.270308,-0.88171 0.521318,-1.02976 0.251001,-0.14793 0.830233,0 0.830233,0 l 0.347548,1.19067 1.647608,-0.46983 c -4.151206,-2.967 -6.950852,-5.70871 -6.937985,-6.32013 7.645942,-0.0902 9.763377,-3.00561 10.741645,-5.61217 1.287198,-3.41107 7.047394,-9.46732 7.266217,-9.69901 a 27.809847,27.809847 0 0 1 -6.107739,-2.41993 c 2.889751,0.10954 5.8503,0.55993 8.205866,-1.56394 -1.119859,-0.85598 -2.934803,-0.54063 -3.34027,-2.51647 0.643597,0 1.222834,0 1.776329,0 0.553492,0 1.879304,0.10953 1.879304,0.10953 l -0.05148,-4.45369 c 0,0 -4.389333,-0.61141 -4.344283,-0.856 2.36844,-0.35395 5.348295,-1.5961 7.723169,-1.81492 a 2.6130059,2.6130059 0 0 1 2.008025,0.83022 c 0.810937,1.04905 3.719989,6.43598 3.719989,6.43598 0,0 2.986292,-0.2317 3.481866,-0.18021 -0.514879,2.6452 -2.966987,2.05951 -4.505184,2.92193 l 1.551074,2.6645 a 0.22525911,0.22525911 0 0 1 -0.212392,0.3411 c -0.58567,-0.0321 -2.490717,-0.0902 -2.490717,-0.0902 0,0 0.740133,2.17536 -0.0579,2.2526 -0.212389,0.29604 -2.336254,-0.47627 -2.81252,-0.53418 0.643598,5.14875 4.505181,8.55982 7.948433,11.68771 l -1.242143,0.68865 a 9.0875967,9.0875967 0 0 0 0.791622,1.15847 c 1.480277,-0.39902 2.645185,-0.70797 3.327399,-0.86884 2.027331,-0.48269 1.898613,-0.93321 2.181794,0.25743 0.21239,0.8946 0.489135,0.99757 -1.660477,1.38374 -0.572805,0.10953 -1.563948,0.34111 -2.838265,0.64359 0.347537,0.6436 0.379718,1.24859 -0.405467,1.63473 a 2.0080241,2.0080241 0 0 1 -2.767472,-0.79806 l -4.382901,1.26146 a 8.5920263,8.5920263 0 0 1 -0.04509,1.28719 c -0.527744,2.91551 -0.952524,5.85031 -1.428781,8.88164 -1.158476,-0.0709 -3.977433,-0.42476 -3.977433,-0.42476 0,0 -0.939654,1.5382 -1.55107,2.38775 -0.231697,0.32823 0.193079,1.2872 0.547058,1.83426 0.514876,0.76587 1.287194,1.35152 1.847123,2.08524 a 1.3258109,1.3258109 0 0 1 0.238132,1.11986 1.1520395,1.1520395 0 0 1 -1.029756,0.36041 c -2.078818,-0.5213 -4.505182,-2.28476 -6.24933,-3.46255 -0.997576,-0.64359 -0.437646,-0.90104 0.444082,-1.83425 0.881728,-0.93323 1.531761,-2.02734 2.400618,-3.0764 a 58.567371,58.567371 0 0 1 -7.832581,-4.42793 l -2.973421,0.86884 0.456954,1.57039 a 1.3322468,1.3322468 0 0 1 -0.643597,0.44406 c -0.315363,0.0578 -0.643593,-0.34753 -0.965397,-0.5213 -0.476258,-0.27675 -0.598546,-0.43122 -0.791623,0.17377 -1.081244,2.70311 -2.973424,3.1472 -4.247742,4.21555 -2.111,1.77631 -2.574389,4.46015 -2.213976,5.79238 -2.2590265,-1.93078 -1.4802798,-5.47702 -0.7851929,-6.13991 -1.8728675,0.10954 -2.799648,5.5478 -3.0442099,6.43598 -0.7337054,-1.18424 -0.1802098,-5.0458 0.1480285,-6.17855 -0.97183,0.35398 -1.6990992,2.79323 -1.6990992,2.79323 a 18.709379,18.709379 0 0 1 0,-2.66451 c 0.3153658,-2.20754 0.7723188,-3.0249 1.3708651,-3.79722 z m 35.282018,-11.53969 -1.69266,0.52132 c 0,0 -3.076399,-3.14077 -4.299232,-4.02248 -0.405463,-0.29605 -0.688646,-1.86645 -0.939653,-1.79564 0,0.70796 -0.167331,3.36602 0.205951,3.70712 a 13.103645,13.103645 0 0 1 3.217985,3.75861 l 4.016049,-1.11342 a 11.069876,11.069876 0 0 0 -0.50844,-1.05551 z"
       id="path4" />
  </g>
</svg>
